<svg xmlns="http://www.w3.org/2000/svg" viewBox="0 0 575 223" enable-background="new 0 0 575 223"><path fill="#fff" d="m115.13 26.16c2.962-.962 6.132.59 7.06 3.46l42.61 131.14c.933 2.871-.719 5.989-3.682 6.952l-88.87 28.878c-2.962.962-6.132-.59-7.06-3.461l-42.61-131.14c-.933-2.871.719-5.99 3.682-6.952l88.87-28.878"/><g fill="#64bde1"><path transform="matrix(.9512-.3087.3087.9512-18.544 17.554)" d="m37.714 58.893h16.988v16.987h-16.988z"/><path transform="matrix(.9512-.3087.3087.9512-14.12 26.25)" d="m67.39 49.27h16.987v16.987h-16.987z"/><path transform="matrix(.9512-.3086.3086.9512-9.686 34.943)" d="m97.11 39.593h16.988v16.987h-16.988z"/><path transform="matrix(.9512-.3087.3087.9512-26.371 21.54)" d="m46.4 85.62h16.987v16.987h-16.987z"/><path transform="matrix(.9512-.3087.3087.9512-21.915 30.21)" d="m76.04 75.876h16.988v16.987h-16.988z"/></g><g fill="#fbe34f"><path transform="matrix(.9512-.3086.3086.9512-40.24 27.606)" d="m61.5 124.05h11.33v33.978h-11.33z"/><path d="m93.76 150.27l-10.783 3.49-6.987-21.52 10.78-3.5z"/><path transform="matrix(.9512-.3086.3086.9512-37.748 38.24)" d="m96.35 129.78h11.335v17.346h-11.335z"/></g><path transform="matrix(.9511-.3088.3088.9511-39.33 45.06)" fill="#d56180" d="m117.01 141.14h11.336v11.257h-11.336z"/><path fill="#fad907" d="m142.58 134.4l-10.78 3.49-8.66-26.67 10.78-3.5z"/><g fill="#b9babc"><path d="m114.25 28.548c2.871-.933 5.965.644 6.898 3.515l42.611 131.14c.933 2.87-.645 5.965-3.515 6.897l-86.12 27.981c-2.871.933-5.965-.644-6.898-3.515l-42.61-131.14c-.933-2.871.644-5.965 3.515-6.898l86.12-27.981m-1.812-5.577l-86.12 27.981c-5.956 1.936-9.215 8.332-7.28 14.288l42.61 131.14c1.935 5.955 8.332 9.215 14.287 7.279l86.12-27.98c5.955-1.936 9.215-8.332 7.28-14.288l-42.609-131.14c-1.936-5.955-8.332-9.214-14.288-7.279z"/><path transform="matrix(.9511-.309.309.9511-48.918 44.08)" d="m62.72 167.68h103.97v17.578h-103.97z"/></g><path fill="#fff" d="m113.5 173.56c2.972-.972 6.17.662 7.14 3.643.967 2.968-.66 6.17-3.63 7.14-2.98.967-6.185-.667-7.152-3.632-.968-2.979.659-6.179 3.642-7.151"/><path fill="#64bde1" d="m208.38 61.701v-7.253c0-2.505-1.583-4.218-4.223-4.218-3.034 0-4.089 1.583-4.089 4.876 0 5.149 6.596 8.05 14.11 13.722 9.631 7.12 13.719 14.243 13.719 25.19 0 15.826-7.39 22.68-22.821 22.68-17.539 0-23.739-6.328-23.739-23.873v-9.627h18.595v10.95c0 5.541.133 8.179 4.222 8.179 3.429 0 4.617-2.244 4.617-7.253 0-6.729-1.977-9.1-6.993-12.927-12.263-9.628-20.18-14.11-20.18-25.985 0-13.588 7.384-20.314 22.553-20.314 15.828 0 22.818 6.068 22.818 20.712v5.14h-18.595z"/><path fill="#2da5d5" d="m253.51 37.03v4.225c2.638-3.039 6.465-5.41 12-5.41 13.06 0 16.09 8.576 16.09 24.14v55.53h-18.595v-57.11c0-5.54-.13-8.175-4.221-8.175-4.087 0-4.221 2.769-4.221 8.175v57.12h-18.595v-78.49h17.54"/><path fill="#d56180" d="m293.47 55.5c0-13.321 6.989-19.653 21.499-19.653 15.96 0 22.292 7.12 22.292 22.555v57.12h-17.677v-4.225c-3.165 3.696-7.12 5.54-11.872 5.54-10.02 0-15.829-6.462-15.829-18.462v-11.609c0-15.04 7.257-18.464 26.78-26.643v-2.638c0-4.882-.401-7.254-4.222-7.254-3.827 0-4.221 2.505-4.221 7.254v3.166h-16.751v-5.146m16.752 34.03v4.615c0 5.541.133 8.179 4.221 8.179 4.091 0 4.222-2.771 4.222-8.179v-19.787c-8.18 4.749-8.443 9.101-8.443 15.172"/><path fill="#c12c59" d="m366.8 37.03v4.225c3.303-3.697 7.391-5.41 12.934-5.41 12.13 0 15.432 8.706 15.432 24.14v29.545c0 17.673-1.452 27.17-16.486 27.17-4.752 0-8.576-1.579-10.82-4.481v14.649h-18.598v-89.84h17.538m9.501 21.37c0-5.54-.134-8.175-4.222-8.175-4.087 0-4.221 2.769-4.221 8.175v35.746c0 5.541.134 8.179 4.221 8.179 4.088 0 4.222-2.771 4.222-8.179v-35.746"/><path fill="#fbe34f" d="m424.05 37.03v4.225c3.299-3.697 7.387-5.41 12.927-5.41 12.133 0 15.435 8.706 15.435 24.14v29.545c0 17.673-1.455 27.17-16.486 27.17-4.752 0-8.576-1.579-10.82-4.481v14.649h-18.599v-89.84h17.543m9.5 21.37c0-5.54-.137-8.175-4.221-8.175-4.091 0-4.225 2.769-4.225 8.175v35.746c0 5.541.134 8.179 4.225 8.179 4.084 0 4.221-2.771 4.221-8.179v-35.746"/><path fill="#f2a71f" d="m481.17 79.24v14.907c0 5.541.13 8.179 4.484 8.179 4.352 0 4.485-2.902 4.485-8.179v-10.422h18.595v7.784c0 17.15-5.01 25.19-23.08 25.19-18.07 0-23.08-8.04-23.08-25.19v-30.47c0-17.02 5.01-25.19 23.08-25.19 18.07 0 23.08 8.05 23.08 25.19v18.201h-27.564m0-14.374h8.97v-5.938c0-6.068-.134-8.703-4.485-8.703-4.354 0-4.484 2.635-4.484 8.703v5.938z"/><path fill="#ef6926" d="m521.53 37.03v-9.23l18.595-3.56v12.791h4.622v14.383h-4.622v45.1c0 3.697.264 4.879 4.622 4.879v13.59c-2.905 1.316-6.202 1.975-9.896 1.975-12.139 0-13.321-5.671-13.321-17.274v-48.27h-4.618v-14.383h4.618"/><g fill="#808285"><path d="m201.88 180.15c.185.246.276.46.276.644 0 .185-.192.474-.575.867-.384.395-.913.779-1.587 1.156-.675.379-1.457.719-2.346 1.021-.89.301-1.84.452-2.853.452-1.963 0-3.618-.422-4.968-1.265s-2.438-2.02-3.266-3.519-1.427-3.266-1.794-5.291c-.368-2.023-.553-4.231-.553-6.623 0-2.178.161-4.239.483-6.188.322-1.947.874-3.656 1.656-5.129.782-1.472 1.832-2.637 3.15-3.496 1.318-.857 2.975-1.287 4.969-1.287 1.012 0 1.962.15 2.852.453.889.302 1.671.642 2.346 1.02.675.377 1.203.763 1.587 1.156.384.395.575.683.575.866 0 .216-.092.431-.275.644l-.967 1.242c-.184.246-.337.369-.46.369-.092 0-.307-.139-.644-.414-.338-.277-.759-.591-1.265-.943-.507-.353-1.074-.668-1.702-.943-.629-.275-1.281-.414-1.955-.414-1.258 0-2.285.293-3.082.877-.798.585-1.426 1.416-1.886 2.492-.46 1.078-.782 2.393-.967 3.947-.184 1.554-.275 3.315-.275 5.285 0 2.123.122 4.055.368 5.793.245 1.739.628 3.225 1.149 4.455s1.196 2.184 2.024 2.861c.828.677 1.824 1.016 2.99 1.016.674 0 1.325-.139 1.954-.414.629-.276 1.196-.59 1.702-.943.506-.352.928-.667 1.266-.943.337-.275.552-.414.644-.414.062 0 .138.047.23.139.092.092.168.168.229.23l.97 1.241"/><path d="m223.78 172.47c0 1.627-.177 3.152-.529 4.578s-.913 2.676-1.679 3.748c-.768 1.074-1.741 1.926-2.921 2.554-1.182.628-2.615.942-4.302.942-1.563 0-2.905-.299-4.02-.896-1.12-.598-2.04-1.41-2.76-2.438-.722-1.027-1.25-2.246-1.588-3.658-.337-1.41-.506-2.943-.506-4.6 0-1.594.177-3.105.529-4.531s.904-2.675 1.656-3.748c.751-1.074 1.717-1.924 2.897-2.553s2.6-.943 4.255-.943c1.564 0 2.913.299 4.049.896 1.134.598 2.069 1.411 2.806 2.438.736 1.028 1.272 2.248 1.61 3.658.338 1.41.507 2.928.507 4.553m-9.108 8.97c1.012 0 1.863-.223 2.553-.667.69-.444 1.242-1.065 1.656-1.862.414-.798.705-1.748.874-2.853.168-1.104.253-2.315.253-3.634 0-1.135-.085-2.224-.253-3.267-.169-1.042-.46-1.962-.874-2.76-.414-.797-.966-1.433-1.656-1.909-.689-.475-1.557-.713-2.599-.713-1.043 0-1.909.23-2.599.689-.69.461-1.242 1.082-1.656 1.863-.414.782-.706 1.688-.874 2.715-.169 1.027-.253 2.108-.253 3.242 0 1.319.084 2.538.253 3.657.168 1.12.46 2.086.874 2.897.414.813.966 1.449 1.656 1.91.69.462 1.572.692 2.645.692"/><path d="m246.18 183.1c0 .367-.184.552-.552.552h-2.392c-.368 0-.553-.185-.553-.554v-15.4c0-.49-.038-.959-.114-1.405-.077-.445-.223-.845-.438-1.198s-.521-.631-.92-.83c-.398-.2-.905-.301-1.518-.301-.736 0-1.419.101-2.047.301-.629.199-1.189.445-1.68.738-.49.291-.936.599-1.334.922-.398.322-.735.605-1.012.852v16.322c0 .369-.184.554-.552.554h-2.393c-.368 0-.552-.185-.552-.552v-15.87c0-.767-.008-1.326-.023-1.679s-.068-.697-.16-1.035c-.185-.705-.354-1.174-.507-1.403s-.229-.406-.229-.528c0-.093.076-.199.229-.322l2.07-1.15c.062-.03.122-.068.185-.115.061-.046.122-.068.184-.068.214 0 .406.146.575.437.168.292.313.621.437.989.122.367.223.721.299 1.058.076.338.115.552.115.644.368-.306.797-.635 1.288-.988.49-.352 1.042-.689 1.656-1.012.613-.322 1.288-.59 2.023-.805.736-.215 1.549-.322 2.438-.322 1.288 0 2.292.207 3.01.621s1.266.942 1.633 1.586c.368.645.599 1.381.69 2.209s.138 1.656.138 2.483v15.269z"/><path d="m270.05 183.1c0 .367-.184.552-.552.552h-2.392c-.368 0-.553-.185-.553-.554v-15.4c0-.49-.038-.959-.114-1.405-.077-.445-.223-.845-.438-1.198s-.521-.631-.92-.83c-.398-.2-.905-.301-1.518-.301-.736 0-1.419.101-2.047.301-.629.199-1.189.445-1.68.738-.49.291-.936.599-1.334.922-.398.322-.735.605-1.012.852v16.322c0 .369-.184.554-.552.554h-2.393c-.368 0-.552-.185-.552-.552v-15.87c0-.767-.008-1.326-.023-1.679s-.068-.697-.16-1.035c-.185-.705-.354-1.174-.507-1.403s-.229-.406-.229-.528c0-.093.076-.199.229-.322l2.07-1.15c.062-.03.122-.068.185-.115.061-.046.122-.068.184-.068.214 0 .406.146.575.437.168.292.313.621.437.989.122.367.223.721.299 1.058.076.338.115.552.115.644.368-.306.797-.635 1.288-.988.49-.352 1.042-.689 1.656-1.012.613-.322 1.288-.59 2.023-.805.736-.215 1.549-.322 2.438-.322 1.288 0 2.292.207 3.01.621s1.266.942 1.633 1.586c.368.645.599 1.381.69 2.209s.138 1.656.138 2.483v15.269z"/><path d="m291.81 181.57c.03.061.062.121.093.182.03.061.046.121.046.182 0 .121-.223.31-.667.566-.445.258-1.013.521-1.702.793-.69.271-1.465.505-2.323.701-.858.197-1.718.295-2.576.295-1.533 0-2.897-.283-4.094-.851s-2.208-1.364-3.036-2.392-1.465-2.254-1.909-3.68c-.444-1.427-.667-3.01-.667-4.762 0-1.686.207-3.243.621-4.669s1.013-2.66 1.794-3.703c.782-1.042 1.732-1.854 2.853-2.438 1.119-.582 2.399-.873 3.841-.873 1.932 0 3.45.406 4.554 1.219 1.104.813 1.939 1.81 2.507 2.99s.928 2.431 1.081 3.748c.153 1.319.23 2.47.23 3.451 0 .338-.023.59-.069.758-.046.17-.191.254-.437.254h-13.202c0 .71.084 1.52.253 2.43.168.909.483 1.773.943 2.59.46.818 1.104 1.505 1.932 2.061.828.555 1.901.832 3.22.832.736 0 1.434-.1 2.093-.299s1.242-.414 1.748-.645c.507-.23.921-.444 1.242-.645.322-.199.514-.299.575-.299s.153.092.276.276l.78 1.928m-3.128-11.08c0-.583-.062-1.266-.184-2.048-.123-.782-.361-1.519-.713-2.208-.354-.689-.836-1.271-1.449-1.748-.613-.475-1.426-.713-2.438-.713-1.074 0-1.94.246-2.6.736s-1.181 1.08-1.563 1.771c-.384.69-.645 1.419-.782 2.185-.138.768-.207 1.442-.207 2.025h9.936"/><path d="m312.65 181.57c.03.061.062.121.093.182.03.061.046.121.046.182 0 .121-.223.31-.667.566-.445.258-1.013.521-1.702.793-.69.271-1.465.505-2.323.701-.858.197-1.718.295-2.576.295-2.76 0-4.892-.988-6.394-2.967-1.503-1.978-2.254-4.652-2.254-8.03 0-1.932.222-3.656.667-5.174.444-1.519 1.073-2.814 1.886-3.888s1.794-1.894 2.944-2.461c1.149-.567 2.43-.851 3.841-.851.766 0 1.541.113 2.323.34.781.227 1.494.498 2.139.815.644.317 1.165.628 1.563.93s.599.543.599.724c0 .061-.016.122-.046.183-.031.06-.063.121-.093.183l-1.058 1.932c-.123.184-.215.276-.276.276s-.215-.122-.46-.368c-.245-.245-.582-.514-1.012-.805s-.936-.56-1.518-.805c-.583-.246-1.212-.369-1.887-.369-1.135 0-2.077.201-2.828.602-.752.401-1.351.979-1.794 1.734-.445.756-.76 1.665-.943 2.729-.185 1.064-.276 2.259-.276 3.584 0 1.049.069 2.09.207 3.122.139 1.033.398 1.958.782 2.774.383.817.92 1.48 1.61 1.988.689.51 1.587.764 2.69.764.736 0 1.434-.1 2.093-.299s1.242-.414 1.748-.645c.507-.23.92-.444 1.242-.645.322-.199.514-.299.575-.299s.153.092.276.276l.783 1.928"/><path d="m329.99 181.98c.062.242.093.393.093.453 0 .15-.192.332-.575.544-.384.212-.867.415-1.449.612-.583.195-1.227.361-1.932.498-.706.135-1.365.203-1.979.203-.981 0-1.863-.16-2.645-.482-.782-.322-1.343-.697-1.68-1.127-.338-.368-.598-.76-.781-1.174-.185-.414-.315-.851-.392-1.311-.077-.46-.123-.92-.138-1.38-.016-.46-.023-.904-.023-1.334v-13.06h-3.45c-.153 0-.245-.062-.275-.185-.031-.122-.046-.245-.046-.368v-1.748c0-.152.015-.283.046-.391.03-.107.122-.161.275-.161h3.45v-6.302c0-.276.169-.46.506-.553l2.438-.689c.062 0 .115-.008.161-.023.046-.015.099-.022.161-.022.152 0 .229.169.229.506v7.084h6.809c.337 0 .506.108.506.322 0 .062-.008.114-.023.161-.016.046-.022.1-.022.16l-.599 1.795c-.123.275-.321.414-.598.414h-6.072v13.1c0 .461.016.915.046 1.36.03.446.131.847.299 1.2.169.354.438.638.806.853.368.216.904.323 1.609.323.553 0 1.065-.062 1.541-.185.476-.122.912-.269 1.312-.437.398-.168.736-.314 1.012-.438.276-.122.46-.184.552-.184.215 0 .322.092.322.275l.506 1.694"/><path d="m348.89 181.57c.03.061.062.121.093.182.03.061.046.121.046.182 0 .121-.223.31-.667.566-.445.258-1.013.521-1.702.793-.69.271-1.465.505-2.323.701-.858.197-1.718.295-2.576.295-1.533 0-2.897-.283-4.094-.851s-2.208-1.364-3.036-2.392-1.465-2.254-1.909-3.68c-.444-1.427-.667-3.01-.667-4.762 0-1.686.207-3.243.621-4.669s1.013-2.66 1.794-3.703c.782-1.042 1.732-1.854 2.853-2.438 1.119-.582 2.399-.873 3.841-.873 1.932 0 3.45.406 4.554 1.219 1.104.813 1.939 1.81 2.507 2.99s.928 2.431 1.081 3.748c.153 1.319.23 2.47.23 3.451 0 .338-.023.59-.069.758-.046.17-.191.254-.437.254h-13.202c0 .71.084 1.52.253 2.43.168.909.483 1.773.943 2.59.46.818 1.104 1.505 1.932 2.061.828.555 1.901.832 3.22.832.736 0 1.434-.1 2.093-.299s1.242-.414 1.748-.645c.507-.23.921-.444 1.242-.645.322-.199.514-.299.575-.299s.153.092.276.276l.78 1.928m-3.128-11.08c0-.583-.062-1.266-.184-2.048-.123-.782-.361-1.519-.713-2.208-.354-.689-.836-1.271-1.449-1.748-.613-.475-1.426-.713-2.438-.713-1.074 0-1.94.246-2.6.736s-1.181 1.08-1.563 1.771c-.384.69-.645 1.419-.782 2.185-.138.768-.207 1.442-.207 2.025h9.936"/><path d="m370.61 176.38c0 1.043.023 1.926.069 2.646.046.722.191 1.373.438 1.955.122.276.291.591.506.942.214.354.321.606.321.76 0 .092-.046.16-.138.207-.092.046-.184.1-.276.16l-1.794 1.104c-.184.093-.307.138-.367.138-.154 0-.322-.105-.507-.316-.184-.212-.353-.461-.506-.748s-.292-.582-.414-.884c-.123-.302-.199-.544-.229-.726-.276.182-.621.424-1.035.726s-.905.597-1.472.884c-.568.287-1.204.536-1.909.748-.706.211-1.488.316-2.346.316-1.228 0-2.293-.314-3.197-.942-.905-.628-1.649-1.472-2.231-2.53-.583-1.059-1.02-2.254-1.311-3.588-.292-1.334-.438-2.721-.438-4.163 0-1.655.153-3.22.46-4.692.307-1.472.767-2.76 1.38-3.863.613-1.104 1.403-1.979 2.369-2.622.967-.644 2.123-.966 3.474-.966 1.44 0 2.591.158 3.449.476s1.595.673 2.208 1.065v-10.928c0-.307.107-.489.322-.551l2.254-.551c.185-.061.283-.084.299-.068s.1.008.254-.023c.184 0 .291.068.321.207.03.138.046.269.046.391v25.436m-3.496-10.894c-.735-.4-1.503-.755-2.3-1.063-.798-.309-1.778-.463-2.943-.463-.982 0-1.765.263-2.347.787-.583.524-1.02 1.21-1.311 2.058-.292.849-.476 1.812-.552 2.89-.077 1.08-.115 2.174-.115 3.284 0 .987.038 1.966.115 2.937.076.971.253 1.857.528 2.659.276.802.683 1.45 1.22 1.942.536.493 1.265.74 2.185.74.582 0 1.15-.108 1.702-.324.552-.215 1.065-.478 1.541-.786.475-.308.904-.608 1.288-.901.383-.293.713-.531.988-.717v-13.04"/><path d="m407.77 180.43c.367 0 .552.123.552.367 0 .093-.023.185-.069.276-.046.093-.085.2-.115.322l-.644 1.748c-.123.338-.368.506-.736.506h-13.892c-.368 0-.552-.185-.552-.552v-30.406c0-.368.184-.552.552-.552h2.668c.368 0 .552.184.552.552v27.738h11.684z"/><path d="m427.23 181.57c.03.061.062.121.093.182.03.061.046.121.046.182 0 .121-.223.31-.667.566-.445.258-1.013.521-1.702.793-.69.271-1.465.505-2.323.701-.858.197-1.718.295-2.576.295-1.533 0-2.897-.283-4.094-.851s-2.208-1.364-3.036-2.392-1.465-2.254-1.909-3.68c-.444-1.427-.667-3.01-.667-4.762 0-1.686.207-3.243.621-4.669s1.013-2.66 1.794-3.703c.782-1.042 1.732-1.854 2.853-2.438 1.119-.582 2.399-.873 3.841-.873 1.932 0 3.45.406 4.554 1.219 1.104.813 1.939 1.81 2.507 2.99s.928 2.431 1.081 3.748c.153 1.319.23 2.47.23 3.451 0 .338-.023.59-.069.758-.046.17-.191.254-.437.254h-13.202c0 .71.084 1.52.253 2.43.168.909.483 1.773.943 2.59.46.818 1.104 1.505 1.932 2.061.828.555 1.901.832 3.22.832.736 0 1.434-.1 2.093-.299s1.242-.414 1.748-.645c.507-.23.921-.444 1.242-.645.322-.199.514-.299.575-.299s.153.092.276.276l.78 1.928m-3.127-11.08c0-.583-.062-1.266-.184-2.048-.123-.782-.361-1.519-.713-2.208-.354-.689-.836-1.271-1.449-1.748-.613-.475-1.426-.713-2.438-.713-1.074 0-1.94.246-2.6.736s-1.181 1.08-1.563 1.771c-.384.69-.645 1.419-.782 2.185-.138.768-.207 1.442-.207 2.025h9.936"/><path d="m447.43 176.38c0 .736.007 1.327.022 1.771.016.445.047.82.093 1.127s.106.591.184.852c.076.26.161.545.253.851.092.276.253.591.483.942.229.354.345.606.345.76 0 .092-.046.16-.138.207-.092.046-.185.1-.276.16l-1.794 1.104c-.184.093-.307.138-.368.138-.184 0-.368-.131-.552-.391s-.353-.559-.506-.896c-.154-.338-.292-.683-.414-1.035-.123-.353-.215-.605-.276-.76-.153.123-.398.354-.735.69-.338.338-.782.683-1.334 1.035-.553.353-1.212.667-1.979.942-.767.276-1.626.414-2.576.414-1.84 0-3.297-.567-4.37-1.701-1.073-1.135-1.609-2.729-1.609-4.784 0-1.288.229-2.384.689-3.289.46-.904 1.059-1.648 1.794-2.231.736-.582 1.557-1.035 2.461-1.357.904-.321 1.81-.566 2.715-.735.903-.168 1.739-.269 2.507-.299.766-.03 1.395-.062 1.886-.093v-1.668c0-1.329-.276-2.357-.828-3.084-.552-.726-1.641-1.09-3.266-1.09-.768 0-1.473.077-2.116.23-.644.154-1.212.322-1.702.506-.491.184-.89.354-1.196.506-.307.154-.506.23-.598.23-.153 0-.261-.076-.322-.23l-.598-1.604c-.092-.212-.138-.408-.138-.59s.237-.393.713-.634c.475-.241 1.065-.469 1.771-.681.705-.211 1.479-.393 2.323-.543.843-.151 1.633-.227 2.369-.227 1.318 0 2.43.153 3.335.459.904.308 1.633.744 2.185 1.312.553.567.95 1.25 1.196 2.048.245.797.368 1.671.368 2.621v9.02zm-3.496-3.726c-.521 0-1.258.031-2.208.093-.951.061-1.901.245-2.852.551-.951.308-1.779.791-2.484 1.449-.706.66-1.058 1.588-1.058 2.783 0 .46.061.92.184 1.381.122.459.322.881.598 1.264.276.385.629.69 1.059.92.429.23.935.346 1.518.346.582 0 1.15-.115 1.702-.346.552-.229 1.058-.506 1.518-.827.46-.322.866-.644 1.22-.966.352-.322.621-.56.805-.713v-5.935z"/><path d="m458.46 183.1c0 .367-.185.552-.553.552h-2.392c-.368 0-.552-.185-.552-.552v-15.778c0-.429-.046-.974-.138-1.633-.093-.659-.308-1.28-.645-1.863-.338-.582-.506-.966-.506-1.149.03-.153.076-.261.138-.322.062-.061.122-.107.185-.139l1.702-1.058c.214-.153.367-.229.46-.229.214 0 .413.153.598.459.184.308.36.668.529 1.082.168.414.306.844.414 1.287.106.445.19.791.253 1.035.306-.306.636-.682.988-1.127.353-.443.76-.873 1.22-1.287s.958-.76 1.494-1.035c.537-.276 1.143-.414 1.817-.414.521 0 1.027.076 1.519.229.489.153.735.338.735.552 0 .063-.016.123-.046.185-.031.062-.062.122-.092.184l-1.012 2.347c-.031.062-.063.131-.093.207s-.092.115-.184.115c-.123 0-.299-.07-.529-.207-.229-.139-.56-.207-.988-.207-.399 0-.798.131-1.196.391-.399.261-.782.574-1.15.943-.368.367-.721.758-1.058 1.172-.338.414-.645.775-.92 1.082v15.178z"/><path d="m485.6 183.1c0 .367-.184.552-.552.552h-2.392c-.368 0-.553-.185-.553-.554v-15.4c0-.49-.038-.959-.114-1.405-.077-.445-.223-.845-.438-1.198s-.521-.631-.92-.83c-.398-.2-.905-.301-1.518-.301-.736 0-1.419.101-2.047.301-.629.199-1.189.445-1.68.738-.49.291-.936.599-1.334.922-.398.322-.735.605-1.012.852v16.322c0 .369-.184.554-.552.554h-2.393c-.368 0-.552-.185-.552-.552v-15.87c0-.767-.008-1.326-.023-1.679s-.068-.697-.16-1.035c-.185-.705-.354-1.174-.507-1.403s-.229-.406-.229-.528c0-.093.076-.199.229-.322l2.07-1.15c.062-.03.122-.068.185-.115.061-.046.122-.068.184-.068.214 0 .406.146.575.437.168.292.313.621.437.989.122.367.223.721.299 1.058.076.338.115.552.115.644.368-.306.797-.635 1.288-.988.49-.352 1.042-.689 1.656-1.012.613-.322 1.288-.59 2.023-.805.736-.215 1.549-.322 2.438-.322 1.288 0 2.292.207 3.01.621s1.266.942 1.633 1.586c.368.645.599 1.381.69 2.209s.138 1.656.138 2.483v15.269z"/><path d="m498.16 183.1c0 .367-.185.552-.552.552h-2.393c-.368 0-.552-.185-.552-.552v-18.676h-3.588c-.368 0-.553-.185-.553-.553v-1.748c0-.367.185-.552.553-.552h6.485c.245 0 .406.062.483.185.076.123.115.291.115.506v20.838zm.828-29.624c0 .767-.27 1.426-.806 1.978-.536.553-1.203.828-2 .828s-1.465-.268-2-.805c-.537-.537-.805-1.203-.805-2s.268-1.464.805-2c.536-.537 1.203-.805 2-.805s1.465.275 2 .828c.537.551.806 1.211.806 1.978"/><path d="m522.27 183.1c0 .367-.184.552-.552.552h-2.392c-.368 0-.553-.185-.553-.554v-15.4c0-.49-.038-.959-.114-1.405-.077-.445-.223-.845-.438-1.198s-.521-.631-.92-.83c-.398-.2-.905-.301-1.518-.301-.736 0-1.419.101-2.047.301-.629.199-1.189.445-1.68.738-.49.291-.936.599-1.334.922-.398.322-.735.605-1.012.852v16.322c0 .369-.184.554-.552.554h-2.393c-.368 0-.552-.185-.552-.552v-15.87c0-.767-.008-1.326-.023-1.679s-.068-.697-.16-1.035c-.185-.705-.354-1.174-.507-1.403s-.229-.406-.229-.528c0-.093.076-.199.229-.322l2.07-1.15c.062-.03.122-.068.185-.115.061-.046.122-.068.184-.068.214 0 .406.146.575.437.168.292.313.621.437.989.122.367.223.721.299 1.058.076.338.115.552.115.644.368-.306.797-.635 1.288-.988.49-.352 1.042-.689 1.656-1.012.613-.322 1.288-.59 2.023-.805.736-.215 1.549-.322 2.438-.322 1.288 0 2.292.207 3.01.621s1.266.942 1.633 1.586c.368.645.599 1.381.69 2.209s.138 1.656.138 2.483v15.269z"/><path d="m544.25 174.77c0 .645.015 1.434.046 2.369.03.936.069 1.901.115 2.898.046.996.084 1.955.115 2.875.029.92.046 1.686.046 2.299 0 1.043-.131 2.055-.392 3.037-.261.98-.705 1.847-1.334 2.599-.629.751-1.457 1.349-2.483 1.794-1.028.443-2.323.667-3.888.667-.858 0-1.748-.083-2.668-.249s-1.756-.378-2.507-.635c-.752-.257-1.364-.521-1.84-.793s-.713-.514-.713-.725c0-.152.061-.348.184-.59l.736-1.563c.062-.185.168-.276.322-.276.092 0 .321.092.689.276.368.184.836.391 1.403.621.567.229 1.211.437 1.932.621.721.184 1.479.275 2.277.275 1.073 0 1.924-.146 2.553-.438.628-.292 1.111-.668 1.449-1.128.337-.461.552-.99.644-1.589.093-.598.139-1.204.139-1.818 0-1.166-.023-2.178-.069-3.037-.046-.86-.069-1.428-.069-1.704-.275.212-.605.46-.988.747-.384.288-.844.56-1.38.816-.537.257-1.127.476-1.771.656-.644.182-1.35.271-2.116.271-2.115 0-3.825-.881-5.129-2.645-1.304-1.763-1.955-4.27-1.955-7.521 0-1.809.177-3.449.529-4.922.353-1.472.889-2.729 1.61-3.771.72-1.042 1.617-1.848 2.69-2.415s2.347-.851 3.818-.851c.766 0 1.449.083 2.047.249.598.167 1.127.354 1.587.566s.835.423 1.127.635c.291.212.514.378.667.498.214-.573.438-1.042.667-1.404.23-.362.452-.544.667-.544.153 0 .291.031.414.092l2.07 1.287c.122.093.184.185.184.277 0 .184-.085.375-.253.574-.169.2-.36.575-.575 1.127-.215.583-.368 1.09-.46 1.518-.092.431-.138 1.059-.138 1.887v7.087m-3.495-9.56c-.398-.186-.974-.439-1.725-.764-.752-.323-1.587-.486-2.508-.486-1.747 0-3.043.718-3.887 2.152-.844 1.434-1.265 3.4-1.265 5.898 0 2.468.275 4.418.828 5.853.552 1.435 1.609 2.151 3.174 2.151.582 0 1.142-.085 1.679-.255.536-.169 1.035-.377 1.495-.624s.874-.502 1.242-.764.689-.485.966-.67v-12.491z"/></g></svg>