<svg xmlns="http://www.w3.org/2000/svg" viewBox="0 0 363.4 102.62" preserveAspectRatio="xMaxYMin" ><g><path d="M27,37.46V30.2A4,4,0,0,0,22.82,26c-3,0-4.09,1.58-4.09,4.88,0,5.15,6.6,8,14.11,13.72,9.63,7.12,13.72,14.24,13.72,25.19,0,15.83-7.39,22.68-22.82,22.68C6.2,92.46,0,86.13,0,68.58V59H18.59V69.91c0,5.54.13,8.18,4.22,8.18,3.43,0,4.62-2.24,4.62-7.25,0-6.73-2-9.1-7-12.93C8.18,48.28.26,43.79.26,31.92c0-13.59,7.38-20.31,22.55-20.31,15.83,0,22.82,6.07,22.82,20.71v5.14Z" fill="#73bee4"/><path d="m72.2 12.79v4.21a15.24 15.24 0 0 1 12 -5.41c13.1 0 16.1 8.58 16.1 24.1v55.5h-18.59v-57.1c0-5.54-.13-8.18-4.22-8.18s-4.22 2.77-4.22 8.18v57.1h-18.6v-78.5" fill="#34a3d7"/><path d="m112.1 31.3c0-13.32 7-19.65 21.5-19.65 16 0 22.29 7.12 22.29 22.56v57.1h-17.68v-4.22a15 15 0 0 1 -11.87 5.54c-10 0-15.83-6.46-15.83-18.46v-11.61c0-15 7.26-18.46 26.78-26.64v-2.64c0-4.88-.4-7.25-4.22-7.25s-4.22 2.5-4.22 7.25v3.16h-16.75m16.75 28.86v4.61c0 5.54.13 8.18 4.22 8.18s4.22-2.77 4.22-8.18v-19.75c-8.18 4.75-8.44 9.1-8.44 15.17" fill="#d55b7c"/><path d="m185.5 12.79v4.21c3.3-3.7 7.39-5.41 12.93-5.41 12.1 0 15.43 8.71 15.43 24.1v29.56c0 17.67-1.45 27.2-16.49 27.2-4.75 0-8.58-1.58-10.82-4.48v14.65h-18.6v-89.8m27.1 21.37c0-5.54-.13-8.18-4.22-8.18s-4.22 2.77-4.22 8.18v35.75c0 5.54.13 8.18 4.22 8.18s4.22-2.78 4.22-8.18" fill="#c32451"/><path d="m242.7 12.79v4.21c3.3-3.7 7.39-5.41 12.93-5.41 12.1 0 15.43 8.71 15.43 24.1v29.56c0 17.67-1.46 27.2-16.49 27.2-4.75 0-8.58-1.58-10.82-4.48v14.65h-18.6v-89.8m27.1 21.37c0-5.54-.14-8.18-4.22-8.18s-4.22 2.77-4.22 8.18v35.75c0 5.54.13 8.18 4.22 8.18s4.22-2.77 4.22-8.18" fill="#fde341"/><path d="m299.8 55v14.91c0 5.54.13 8.18 4.48 8.18s4.49-2.9 4.49-8.18v-10.43h18.59v7.78c0 17.2-5 25.2-23.1 25.2s-23.1-8-23.1-25.2v-30.46c0-17 5-25.2 23.1-25.2s23.1 8 23.1 25.2v18.2m-27.56-14.37h9v-5.94c0-6.07-.13-8.7-4.49-8.7s-4.48 2.64-4.48 8.7" fill="#f3a900"/><path d="M340.19,12.79V3.56L358.78,0V12.79h4.62V27.17h-4.62v45.1c0,3.7.26,4.88,4.62,4.88V90.75a23.72,23.72,0,0,1-9.9,2c-12.14,0-13.32-5.67-13.32-17.27V27.17h-4.62V12.79Z" fill="#e95f15"/></g></svg>