<?xml version="1.0" encoding="utf-8"?>
<!-- Generator: Adobe Illustrator 12.0.0, SVG Export Plug-In . SVG Version: 6.00 Build 51448)  -->
<!DOCTYPE svg PUBLIC "-//W3C//DTD SVG 1.1//EN" "http://www.w3.org/Graphics/SVG/1.1/DTD/svg11.dtd" [
	<!ENTITY ns_svg "http://www.w3.org/2000/svg">
	<!ENTITY ns_xlink "http://www.w3.org/1999/xlink">
]>
<svg  version="1.1" id="Layer_1" xmlns="&ns_svg;" xmlns:xlink="&ns_xlink;" width="350.421" height="175.846"
	 viewBox="0 0 350.421 175.846" overflow="visible" enable-background="new 0 0 350.421 175.846" xml:space="preserve">
<filter  id="dropShadow">
	<feGaussianBlur  in="SourceAlpha" stdDeviation="3"></feGaussianBlur>
	<feOffset  dy="7" dx="0"></feOffset>
	<feComponentTransfer>
		<feFuncA  type="linear" slope="0.1"></feFuncA>
	</feComponentTransfer>
	<feMerge>
		<feMergeNode></feMergeNode>
		<feMergeNode  in="SourceGraphic"></feMergeNode>
	</feMerge>
</filter>
<g filter="url(#dropShadow)">
	<path fill="#FFFFFF" d="M24.488,0c0,0-10.089,0-10.089,10.089v98.24c0,0,0,10.09,10.086,10.331l235.727,5.644
		c0,0,10.086,0.241,11.479-9.752l14.564-104.56c0,0,1.393-9.992-8.697-9.992H24.488z"/>
</g>
<g id="g3363" transform="matrix(1.25,0,0,-1.25,0,278.75)">
	<g id="g3365" transform="scale(0.1,0.1)">
		<path id="path3367" fill="#FFFFFF" d="M602.805,1991.541c8.848,2.875,18.313-1.766,21.098-10.336l127.234-391.563
			c2.781-8.582-2.152-17.891-11-20.762l-265.367-86.227c-8.844-2.867-18.313,1.766-21.094,10.328l-127.234,391.574
			c-2.781,8.574,2.152,17.891,11,20.762L602.805,1991.541"/>
		<path id="path3369" fill="#72C3E6" d="M428.973,1852.146l-48.242-15.652l-15.66,48.242l48.242,15.66L428.973,1852.146"/>
		<path id="path3371" fill="#72C3E6" d="M517.602,1880.892l-48.246-15.66l-15.664,48.246l48.25,15.66L517.602,1880.892"/>
		<path id="path3373" fill="#72C3E6" d="M606.332,1909.771l-48.242-15.652l-15.66,48.242l48.246,15.664L606.332,1909.771"/>
		<path id="path3375" fill="#72C3E6" d="M454.902,1772.334l-48.242-15.648L391,1804.927l48.25,15.668L454.902,1772.334"/>
		<path id="path3377" fill="#72C3E6" d="M543.414,1801.435l-48.25-15.664l-15.652,48.258l48.246,15.66L543.414,1801.435"/>
		<path id="path3379" fill="#F6E633" d="M491.352,1605.513l-32.184-10.438l-31.32,96.488l32.176,10.453L491.352,1605.513"/>
		<path id="path3381" fill="#F6E633" d="M539.016,1620.974l-32.199-10.43l-20.867,64.25l32.195,10.453L539.016,1620.974"/>
		<path id="path3383" fill="#F6E633" d="M587.769,1636.842l-32.191-10.445l-15.992,49.258l32.187,10.453L587.769,1636.842"/>
		<path id="path3385" fill="#D5447E" d="M646.648,1620.666l-32.188-10.461l-10.379,31.973l32.191,10.453L646.648,1620.666"/>
		<path id="path3387" fill="#F5D908" d="M684.769,1668.357l-32.188-10.438l-25.859,79.652l32.188,10.445L684.769,1668.357"/>
		<path id="path3389" fill="#B7B8B9" d="M594.773,2001.056l-257.137-83.543c-17.789-5.777-27.52-24.879-21.738-42.66l127.23-391.582
			c5.773-17.773,24.875-27.508,42.66-21.727l257.129,83.559c17.785,5.77,27.516,24.867,21.742,42.648l-127.234,391.57
			C631.652,1997.107,612.555,2006.842,594.773,2001.056L594.773,2001.056z M600.18,1984.412c8.574,2.785,17.816-1.926,20.594-10.496
			l127.23-391.566c2.789-8.578-1.918-17.824-10.488-20.605l-257.145-83.543c-8.57-2.789-17.805,1.922-20.594,10.492l-127.23,391.57
			c-2.777,8.57,1.926,17.813,10.496,20.598L600.18,1984.412"/>
		<path id="path3391" fill="#B7B8B9" d="M757.273,1565.744l-295.242-95.926l-16.215,49.906l295.246,95.93L757.273,1565.744"/>
		<path id="path3393" fill="#FFFFFF" d="M597.957,1551.408c8.879,2.898,18.43-1.977,21.32-10.875
			c2.883-8.855-1.969-18.418-10.84-21.309c-8.898-2.891-18.465,1.984-21.355,10.828
			C584.187,1538.951,589.047,1548.506,597.957,1551.408"/>
		<path id="path3395" fill="#72C3E6" d="M881.254,1885.42v21.652c0,7.48-4.727,12.598-12.605,12.598
			c-9.059,0-12.211-4.727-12.211-14.559c0-15.379,19.695-24.031,42.141-40.965c28.754-21.27,40.961-42.539,40.961-75.234
			c0-47.254-22.063-67.711-68.137-67.711c-52.379,0-70.887,18.891-70.887,71.273v28.746h55.523v-32.695
			c0-16.543,0.398-24.426,12.609-24.426c10.238,0,13.781,6.711,13.781,21.664c0,20.098-5.902,27.172-20.875,38.602
			c-36.617,28.746-60.246,42.133-60.246,77.582c0,40.578,22.039,60.66,67.34,60.66c47.258,0,68.129-18.117,68.129-61.844v-15.344
			H881.254"/>
		<path id="path3397" fill="#4EA7DA" d="M1015.996,1959.068v-12.617c7.871,9.078,19.293,16.156,35.828,16.156
			c38.988,0,48.043-25.605,48.043-72.086v-165.797h-55.516v170.535c0,16.539-0.391,24.41-12.609,24.41
			c-12.195,0-12.602-8.273-12.602-24.41v-170.535h-55.52v234.344H1015.996"/>
		<path id="path3399" fill="#D5447E" d="M1185.34,1802.306v-13.781c0-16.543,0.395-24.426,12.594-24.426
			c12.223,0,12.609,8.281,12.609,24.426v59.082C1186.121,1833.427,1185.34,1820.431,1185.34,1802.306z M1135.32,1903.924
			c0,39.777,20.863,58.684,64.195,58.684c47.648,0,66.563-21.262,66.563-67.348v-170.535h-52.785v12.609
			c-9.445-11.031-21.262-16.539-35.453-16.539c-29.922,0-47.258,19.297-47.258,55.129v34.652c0,44.906,21.668,55.137,79.961,79.559
			v7.875c0,14.578-1.195,21.66-12.609,21.66c-11.422,0-12.594-7.48-12.594-21.66v-9.449h-50.02V1903.924"/>
		<path id="path3401" fill="#C21D56" d="M1382.644,1895.26c0,16.539-0.398,24.41-12.602,24.41c-12.195,0-12.602-8.273-12.602-24.41
			v-106.734c0-16.543,0.406-24.426,12.602-24.426c12.203,0,12.602,8.281,12.602,24.426V1895.26z M1354.285,1959.068v-12.617
			c9.852,11.043,22.063,16.156,38.609,16.156c36.227,0,46.078-25.996,46.078-72.086v-88.215c0-52.77-4.336-81.105-49.227-81.105
			c-14.188,0-25.609,4.715-32.305,13.375v-43.738h-55.527v268.23H1354.285"/>
		<path id="path3403" fill="#F6E633" d="M1553.598,1895.26c0,16.539-0.414,24.41-12.609,24.41c-12.227,0-12.617-8.273-12.617-24.41
			v-106.734c0-16.543,0.391-24.426,12.617-24.426c12.195,0,12.609,8.281,12.609,24.426V1895.26z M1525.223,1959.068v-12.617
			c9.844,11.043,22.063,16.156,38.594,16.156c36.227,0,46.094-25.996,46.094-72.086v-88.215c0-52.77-4.344-81.105-49.219-81.105
			c-14.211,0-25.625,4.715-32.32,13.375v-43.738h-55.531v268.23H1525.223"/>
		<path id="path3405" fill="#F1A011" d="M1695.738,1875.955h26.805v17.73c0,18.113-0.422,25.984-13.398,25.984
			c-13.016,0-13.406-7.871-13.406-25.984V1875.955z M1695.738,1833.033v-44.508c0-16.543,0.391-24.426,13.406-24.426
			c12.977,0,13.398,8.668,13.398,24.426v31.121h55.508V1796.4c0-51.195-14.953-75.199-68.906-75.199s-68.922,24.004-68.922,75.199
			v90.984c0,50.805,14.969,75.223,68.922,75.223s68.906-24.023,68.906-75.223v-54.352H1695.738"/>
		<path id="path3407" fill="#EF551F" d="M1816.269,1959.068v27.559l55.523,10.629v-38.188h13.797v-42.945h-13.797v-134.676
			c0-11.039,0.797-14.566,13.797-14.566v-40.578c-8.672-3.934-18.508-5.895-29.547-5.895c-36.242,0-39.773,16.926-39.773,51.574
			v144.141h-13.781v42.945H1816.269"/>
		<g id="g3409" transform="scale(10,10)">
			<g enable-background="new    ">
				<path fill="#7B7979" d="M82.139,157.061c0-2.8,0.65-4.2,1.952-4.2c0.353,0,0.661,0.094,0.922,0.282
					c0.261,0.187,0.441,0.321,0.539,0.402c0.099,0.081,0.161,0.121,0.188,0.121c0.027,0,0.075-0.036,0.147-0.107l0.288-0.37
					c0.054-0.071,0.081-0.134,0.081-0.19c0-0.055-0.057-0.145-0.171-0.265c-0.114-0.121-0.352-0.285-0.714-0.49
					c-0.362-0.206-0.818-0.309-1.368-0.309c-1.077,0-1.864,0.452-2.359,1.359c-0.496,0.905-0.744,2.117-0.744,3.633
					c0,2.259,0.362,3.625,1.086,4.099c0.724,0.474,1.365,0.711,1.924,0.711s1.017-0.104,1.375-0.312
					c0.358-0.208,0.593-0.371,0.707-0.489c0.114-0.119,0.171-0.207,0.171-0.265c0-0.059-0.027-0.121-0.081-0.188l-0.289-0.369
					c-0.053-0.072-0.098-0.107-0.134-0.107c-0.036,0-0.22,0.134-0.554,0.402c-0.333,0.269-0.696,0.403-1.09,0.403
					c-0.72,0-1.213-0.309-1.479-0.929C82.272,159.262,82.139,158.322,82.139,157.061z"/>
			</g>
			<g enable-background="new    ">
				<path fill="#7B7979" d="M92.724,155.476c0-1.037-0.234-1.887-0.702-2.548c-0.468-0.662-1.161-0.992-2.078-0.992
					c-0.914,0-1.591,0.316-2.035,0.949c-0.443,0.632-0.664,1.462-0.664,2.491c0,1.032,0.23,1.88,0.691,2.544
					c0.461,0.664,1.15,0.995,2.068,0.995c0.913,0,1.595-0.313,2.045-0.941C92.499,157.345,92.724,156.512,92.724,155.476z
					 M89.984,152.787c0.586,0,1.002,0.234,1.246,0.704c0.244,0.469,0.366,1.133,0.366,1.991c0,1.194-0.191,1.922-0.571,2.186
					c-0.381,0.264-0.918,0.396-1.613,0.396c-0.694,0-1.041-0.848-1.041-2.542c0-1.31,0.19-2.094,0.571-2.35
					C89.323,152.915,89.67,152.787,89.984,152.787z"/>
			</g>
			<g enable-background="new    ">
				<path fill="#7B7979" d="M99.404,152.297c0-0.112-0.055-0.167-0.167-0.167h-0.71c-0.112,0-0.167,0.055-0.167,0.167v4.586
					c0,0.537-0.103,0.855-0.309,0.955c-0.205,0.101-0.409,0.152-0.61,0.152c-0.385,0-0.717-0.084-0.996-0.252
					c-0.279-0.167-0.542-0.361-0.788-0.58v-4.861c0-0.112-0.055-0.167-0.168-0.167h-0.71c-0.112,0-0.168,0.055-0.168,0.167v4.734
					c0,0.617-0.046,0.993-0.137,1.129c-0.091,0.137-0.137,0.221-0.137,0.251c0,0.032,0.022,0.066,0.067,0.101l0.623,0.349
					c0.018,0.009,0.035,0.02,0.053,0.034c0.018,0.013,0.047,0.02,0.088,0.02c0.084,0,0.17-0.132,0.258-0.398
					c0.087-0.267,0.13-0.446,0.13-0.54c0.782,0.626,1.513,0.938,2.193,0.938c0.679,0,1.125-0.181,1.337-0.546
					c0.212-0.364,0.318-0.868,0.318-1.511V152.297z"/>
			</g>
			<g enable-background="new    ">
				<path fill="#7B7979" d="M106.533,152.297c0-0.112-0.056-0.167-0.168-0.167h-0.71c-0.112,0-0.168,0.055-0.168,0.167v4.586
					c0,0.537-0.103,0.855-0.308,0.955c-0.207,0.101-0.409,0.152-0.611,0.152c-0.384,0-0.716-0.084-0.995-0.252
					c-0.28-0.167-0.543-0.361-0.788-0.58v-4.861c0-0.112-0.057-0.167-0.168-0.167h-0.71c-0.112,0-0.168,0.055-0.168,0.167v4.734
					c0,0.617-0.046,0.993-0.137,1.129c-0.091,0.137-0.137,0.221-0.137,0.251c0,0.032,0.022,0.066,0.067,0.101l0.623,0.349
					c0.018,0.009,0.036,0.02,0.054,0.034c0.018,0.013,0.046,0.02,0.087,0.02c0.085,0,0.171-0.132,0.258-0.398
					c0.087-0.267,0.131-0.446,0.131-0.54c0.782,0.626,1.513,0.938,2.192,0.938c0.679,0,1.125-0.181,1.338-0.546
					c0.212-0.364,0.318-0.868,0.318-1.511V152.297z"/>
			</g>
			<g enable-background="new    ">
				<path fill="#7B7979" d="M110.728,158.915c1.663,0,2.495-1.136,2.495-3.408c0-0.103-0.007-0.179-0.02-0.227
					c-0.014-0.05-0.055-0.075-0.128-0.075h-3.943c0-0.992,0.22-1.631,0.657-1.918c0.438-0.286,0.809-0.429,1.112-0.429
					c0.304,0,0.555,0.028,0.751,0.086c0.197,0.058,0.371,0.123,0.52,0.192c0.15,0.07,0.272,0.134,0.369,0.195
					c0.096,0.061,0.154,0.09,0.175,0.09c0.02,0,0.048-0.029,0.084-0.087l0.235-0.577c0.027-0.053,0.04-0.094,0.04-0.12
					c0-0.027-0.067-0.08-0.202-0.157c-0.134-0.079-0.503-0.24-1.11-0.484c-0.605-0.244-1.282-0.188-2.032,0.167
					c-0.749,0.356-1.223,0.858-1.425,1.506c-0.201,0.648-0.301,1.23-0.301,1.744c0,1.037,0.245,1.881,0.735,2.53
					C109.229,158.591,109.891,158.915,110.728,158.915z M112.096,156.056c0,0.833-0.163,1.375-0.487,1.629
					c-0.324,0.252-0.642,0.379-0.955,0.379c-0.537,0-0.924-0.213-1.162-0.638c-0.239-0.425-0.36-0.882-0.36-1.37H112.096z"/>
			</g>
			<g enable-background="new    ">
				<path fill="#7B7979" d="M119.292,152.641c0-0.028-0.065-0.08-0.198-0.159c-0.132-0.078-0.375-0.188-0.73-0.33
					c-0.355-0.145-0.766-0.216-1.236-0.216c-0.821,0-1.457,0.296-1.905,0.887c-0.449,0.592-0.673,1.424-0.673,2.497
					c0,1.073,0.252,1.941,0.756,2.603c0.505,0.662,1.179,0.992,2.023,0.992c0.42,0,0.854-0.112,1.304-0.335
					c0.447-0.224,0.672-0.396,0.672-0.516c0-0.023-0.014-0.06-0.041-0.114l-0.314-0.577c-0.036-0.055-0.063-0.082-0.081-0.082
					s-0.063,0.038-0.137,0.112c-0.074,0.073-0.227,0.189-0.458,0.348c-0.232,0.159-0.519,0.238-0.857,0.238
					c-0.643,0-1.093-0.216-1.352-0.648c-0.259-0.431-0.389-1.069-0.389-1.915c0-1.188,0.179-1.912,0.539-2.173
					c0.36-0.262,0.678-0.392,0.954-0.392c0.277,0,0.512,0.028,0.706,0.086c0.194,0.058,0.367,0.121,0.519,0.19
					c0.152,0.068,0.275,0.134,0.371,0.194c0.096,0.06,0.153,0.089,0.17,0.089c0.018,0,0.045-0.029,0.081-0.086l0.235-0.575
					C119.279,152.707,119.292,152.666,119.292,152.641z"/>
			</g>
			<g enable-background="new    ">
				<path fill="#7B7979" d="M123.861,157.87h-1.818v-3.903c0-0.366,0.046-0.643,0.137-0.829c0.091-0.185,0.297-0.278,0.618-0.278
					s0.584,0.042,0.789,0.127c0.205,0.084,0.348,0.145,0.431,0.182c0.082,0.038,0.137,0.057,0.163,0.057
					c0.063,0,0.094-0.027,0.094-0.08l0.154-0.507c0.018-0.072,0.027-0.125,0.027-0.16s-0.056-0.085-0.17-0.148
					c-0.114-0.062-0.322-0.143-0.624-0.245c-0.301-0.1-0.613-0.151-0.934-0.151c-0.611,0-1.077,0.184-1.393,0.549
					c-0.223,0.255-0.335,0.75-0.335,1.483v3.903h-1.033c-0.063,0-0.094,0.056-0.094,0.167v0.516c0,0.112,0.031,0.168,0.094,0.168
					h1.033v1.88c0,0.08,0.05,0.134,0.148,0.161l0.735,0.207l0.095,0.013c0.045,0,0.067-0.05,0.067-0.154v-2.107h2.039
					c0.103,0,0.152-0.032,0.147-0.095l-0.013-0.1l-0.181-0.537C124,157.91,123.941,157.87,123.861,157.87z"/>
			</g>
			<g enable-background="new    ">
				<path fill="#7B7979" d="M127.772,158.915c1.664,0,2.496-1.136,2.496-3.408c0-0.103-0.007-0.179-0.02-0.227
					c-0.014-0.05-0.055-0.075-0.127-0.075h-3.943c0-0.992,0.219-1.631,0.657-1.918c0.437-0.286,0.809-0.429,1.113-0.429
					c0.304,0,0.554,0.028,0.751,0.086c0.197,0.058,0.37,0.123,0.52,0.192c0.15,0.07,0.273,0.134,0.369,0.195s0.155,0.09,0.174,0.09
					c0.02,0,0.048-0.029,0.084-0.087l0.235-0.577c0.027-0.053,0.041-0.094,0.041-0.12c0-0.027-0.067-0.08-0.202-0.157
					c-0.133-0.079-0.504-0.24-1.11-0.484c-0.605-0.244-1.282-0.188-2.032,0.167c-0.75,0.356-1.224,0.858-1.425,1.506
					c-0.202,0.648-0.302,1.23-0.302,1.744c0,1.037,0.244,1.881,0.734,2.53C126.274,158.591,126.936,158.915,127.772,158.915z
					 M129.14,156.056c0,0.833-0.162,1.375-0.486,1.629c-0.323,0.252-0.642,0.379-0.955,0.379c-0.537,0-0.925-0.213-1.163-0.638
					c-0.24-0.425-0.359-0.882-0.359-1.37H129.14z"/>
			</g>
			<g enable-background="new    ">
				<path fill="#7B7979" d="M136.56,161.892v-7.59c0-0.679,0.035-1.099,0.107-1.259c0.073-0.156,0.138-0.288,0.198-0.396
					c0.059-0.107,0.091-0.179,0.091-0.214c0-0.037-0.014-0.061-0.041-0.075c-0.027-0.013-0.054-0.028-0.081-0.046l-0.536-0.336
					c-0.053-0.026-0.095-0.04-0.127-0.04c-0.071,0-0.163,0.104-0.274,0.313c-0.112,0.208-0.178,0.374-0.202,0.499
					c-0.08-0.053-0.287-0.203-0.62-0.446c-0.334-0.243-0.788-0.366-1.359-0.366c-0.729,0-1.276,0.332-1.641,0.995
					c-0.364,0.664-0.547,1.484-0.547,2.457c0,0.974,0.191,1.806,0.574,2.494c0.382,0.688,0.956,1.032,1.721,1.032
					c0.653,0,1.217-0.156,1.691-0.47v3.272c0,0.089,0.033,0.143,0.101,0.161l0.67,0.168c0.054,0.019,0.083,0.025,0.087,0.021
					c0.005-0.005,0.03-0.002,0.08,0.006C136.524,162.072,136.56,162.012,136.56,161.892z M133.991,157.99
					c-0.559,0-0.922-0.239-1.087-0.718c-0.166-0.478-0.248-1.104-0.248-1.877c0-0.774,0.052-1.316,0.157-1.629
					c0.106-0.313,0.241-0.542,0.403-0.686c0.164-0.146,0.357-0.218,0.581-0.218c0.224,0,0.417,0.031,0.58,0.094
					c0.164,0.063,0.317,0.139,0.46,0.231c0.144,0.091,0.273,0.181,0.386,0.268c0.113,0.087,0.211,0.158,0.292,0.211v3.875
					c-0.219,0.121-0.447,0.225-0.684,0.314C134.592,157.944,134.314,157.99,133.991,157.99z"/>
			</g>
			
				<text transform="matrix(0.8 0 0 -0.8 137.7019 152.1295)" fill="#7B7979" font-family="'OfficinaSansCE-Book'" font-size="17.1688"> </text>
			<g enable-background="new    ">
				<path fill="#7B7979" d="M147.664,153.085c0.112,0,0.166-0.036,0.161-0.107c0-0.027-0.007-0.055-0.02-0.08
					c-0.013-0.027-0.025-0.06-0.034-0.1l-0.195-0.515c-0.036-0.102-0.107-0.153-0.214-0.153h-4.152
					c-0.111,0-0.168,0.055-0.168,0.167v9.078c0,0.111,0.057,0.168,0.168,0.168h0.798c0.113,0,0.166-0.057,0.162-0.169v-8.289
					H147.664z"/>
			</g>
			<g enable-background="new    ">
				<path fill="#7B7979" d="M151.163,158.915c1.663,0,2.494-1.136,2.494-3.408c0-0.103-0.006-0.179-0.02-0.227
					c-0.014-0.05-0.055-0.075-0.127-0.075h-3.943c0-0.992,0.22-1.631,0.657-1.918c0.438-0.286,0.809-0.429,1.113-0.429
					s0.554,0.028,0.75,0.086c0.198,0.058,0.37,0.123,0.521,0.192c0.148,0.07,0.272,0.134,0.369,0.195
					c0.096,0.061,0.153,0.09,0.174,0.09c0.02,0,0.048-0.029,0.083-0.087l0.236-0.577c0.027-0.053,0.04-0.094,0.04-0.12
					c0-0.027-0.067-0.08-0.202-0.157c-0.133-0.079-0.503-0.24-1.109-0.484c-0.606-0.244-1.284-0.188-2.033,0.167
					c-0.748,0.356-1.224,0.858-1.426,1.506c-0.2,0.648-0.3,1.23-0.3,1.744c0,1.037,0.245,1.881,0.734,2.53
					C149.663,158.591,150.326,158.915,151.163,158.915z M152.529,156.056c0,0.833-0.162,1.375-0.486,1.629
					c-0.323,0.252-0.641,0.379-0.954,0.379c-0.538,0-0.925-0.213-1.164-0.638c-0.238-0.425-0.359-0.882-0.359-1.37H152.529z"/>
			</g>
			<g enable-background="new    ">
				<path fill="#7B7979" d="M159.144,151.936c-0.126,0-0.301,0.309-0.526,0.925c-0.044-0.037-0.118-0.105-0.217-0.209
					c-0.102-0.102-0.298-0.248-0.593-0.434c-0.294-0.188-0.699-0.282-1.216-0.282c-0.517,0-0.938,0.17-1.259,0.509
					c-0.321,0.34-0.481,0.838-0.481,1.495c0,0.657,0.216,1.159,0.651,1.505c0.434,0.346,0.884,0.562,1.35,0.647
					s0.813,0.132,1.041,0.14c0.228,0.009,0.416,0.018,0.562,0.027v0.497c0,0.394-0.082,0.698-0.247,0.913
					c-0.164,0.215-0.491,0.322-0.976,0.322c-0.486,0-0.878-0.073-1.177-0.218c-0.298-0.146-0.466-0.218-0.502-0.218
					s-0.064,0.023-0.086,0.068l-0.174,0.482c-0.028,0.063-0.04,0.138-0.04,0.225c0,0.088,0.253,0.207,0.76,0.359
					c0.505,0.152,0.961,0.228,1.362,0.228c0.764,0,1.309-0.167,1.634-0.503c0.327-0.335,0.489-0.809,0.489-1.422v-2.688
					c0-0.528,0.02-0.866,0.063-1.016c0.041-0.149,0.074-0.266,0.099-0.351c0.027-0.084,0.073-0.18,0.141-0.287
					c0.067-0.108,0.101-0.179,0.101-0.215c0-0.036-0.013-0.06-0.039-0.074c-0.027-0.013-0.056-0.028-0.086-0.046l-0.521-0.336
					C159.204,151.95,159.166,151.936,159.144,151.936z M158.456,155.407c-1.055,0-1.745-0.154-2.07-0.459
					c-0.327-0.306-0.489-0.638-0.489-0.995c0-0.509,0.123-0.832,0.368-0.965c0.245-0.134,0.455-0.201,0.627-0.201
					c0.174,0,0.344,0.034,0.509,0.104c0.166,0.069,0.315,0.152,0.452,0.246c0.136,0.097,0.256,0.193,0.36,0.289
					c0.105,0.096,0.187,0.166,0.244,0.211V155.407z"/>
			</g>
			<g enable-background="new    ">
				<path fill="#7B7979" d="M164.289,158.915c0.156,0,0.307-0.023,0.452-0.07c0.145-0.047,0.217-0.101,0.217-0.164
					c0-0.017-0.012-0.053-0.04-0.107l-0.302-0.701c-0.008-0.018-0.017-0.038-0.027-0.06c-0.009-0.022-0.029-0.033-0.059-0.033
					c-0.033,0-0.082,0.023-0.152,0.071c-0.069,0.047-0.166,0.071-0.291,0.071c-0.127,0-0.247-0.039-0.366-0.118
					c-0.12-0.078-0.233-0.173-0.343-0.283c-0.109-0.11-0.214-0.227-0.315-0.35c-0.1-0.123-0.191-0.233-0.271-0.327v-4.548
					c0-0.112-0.057-0.167-0.167-0.167h-0.71c-0.113,0-0.169,0.055-0.169,0.167v4.729c0,0.428-0.058,0.75-0.175,0.971
					c-0.116,0.22-0.174,0.359-0.169,0.415c0.004,0.057,0.031,0.098,0.084,0.125l0.495,0.307c0.062,0.044,0.105,0.067,0.132,0.071
					c0.16,0,0.335-0.375,0.521-1.127c0.091,0.087,0.273,0.296,0.546,0.629C163.455,158.749,163.824,158.915,164.289,158.915z"/>
			</g>
			<g enable-background="new    ">
				<path fill="#7B7979" d="M170.896,152.297c0-0.112-0.055-0.167-0.168-0.167h-0.71c-0.111,0-0.167,0.055-0.167,0.167v4.586
					c0,0.537-0.103,0.855-0.309,0.955c-0.205,0.101-0.409,0.152-0.61,0.152c-0.384,0-0.716-0.084-0.996-0.252
					c-0.278-0.167-0.541-0.361-0.787-0.58v-4.861c0-0.112-0.055-0.167-0.168-0.167h-0.709c-0.111,0-0.167,0.055-0.167,0.167v4.734
					c0,0.617-0.046,0.993-0.138,1.129c-0.091,0.137-0.137,0.221-0.137,0.251c0,0.032,0.023,0.066,0.066,0.101l0.623,0.349
					c0.019,0.009,0.036,0.02,0.054,0.034c0.018,0.013,0.048,0.02,0.087,0.02c0.085,0,0.17-0.132,0.258-0.398
					c0.087-0.267,0.131-0.446,0.131-0.54c0.782,0.626,1.512,0.938,2.193,0.938c0.679,0,1.125-0.181,1.337-0.546
					c0.212-0.364,0.317-0.868,0.317-1.511V152.297z"/>
			</g>
			<g enable-background="new    ">
				<path fill="#7B7979" d="M174.463,158.722c0.12,0,0.18-0.07,0.18-0.208v-6.216c0-0.112-0.053-0.167-0.16-0.167h-0.718
					c-0.111,0-0.166,0.055-0.166,0.167v5.573h-1.064c-0.113,0-0.169,0.056-0.169,0.167v0.516c0,0.112,0.056,0.168,0.169,0.168
					H174.463z M174.649,161.731c0.159-0.164,0.241-0.361,0.241-0.591c0-0.23-0.081-0.427-0.241-0.591
					c-0.159-0.164-0.359-0.245-0.596-0.245c-0.236,0-0.434,0.079-0.595,0.239c-0.16,0.159-0.241,0.358-0.241,0.598
					s0.08,0.439,0.241,0.598c0.16,0.159,0.359,0.238,0.595,0.238C174.29,161.976,174.489,161.894,174.649,161.731z"/>
			</g>
			<g enable-background="new    ">
				<path fill="#7B7979" d="M181.844,152.297c0-0.112-0.057-0.167-0.168-0.167h-0.71c-0.113,0-0.168,0.055-0.168,0.167v4.586
					c0,0.537-0.103,0.855-0.308,0.955c-0.206,0.101-0.409,0.152-0.612,0.152c-0.384,0-0.715-0.084-0.995-0.252
					c-0.28-0.167-0.542-0.361-0.789-0.58v-4.861c0-0.112-0.055-0.167-0.166-0.167h-0.71c-0.113,0-0.169,0.055-0.169,0.167v4.734
					c0,0.617-0.045,0.993-0.137,1.129c-0.092,0.137-0.137,0.221-0.137,0.251c0,0.032,0.022,0.066,0.066,0.101l0.623,0.349
					c0.018,0.009,0.036,0.02,0.054,0.034c0.018,0.013,0.047,0.02,0.087,0.02c0.084,0,0.17-0.132,0.258-0.398
					c0.086-0.267,0.131-0.446,0.131-0.54c0.781,0.626,1.511,0.938,2.192,0.938c0.678,0,1.123-0.181,1.337-0.546
					c0.212-0.364,0.319-0.868,0.319-1.511V152.297z"/>
			</g>
			<g enable-background="new    ">
				<path fill="#7B7979" d="M188.734,158.399c0-0.041-0.019-0.091-0.058-0.151c-0.04-0.061-0.092-0.212-0.161-0.454
					c-0.068-0.241-0.102-0.54-0.102-0.898v-2.12l0.093-3.12c0-1.115-0.285-1.795-0.856-2.041c-0.57-0.245-1.036-0.366-1.393-0.366
					c-0.634,0-1.204,0.089-1.708,0.266c-0.504,0.178-0.755,0.332-0.755,0.462c0,0.045,0.016,0.105,0.052,0.18l0.214,0.467
					c0.018,0.053,0.044,0.08,0.078,0.08s0.105-0.028,0.212-0.083c0.107-0.056,0.312-0.145,0.613-0.266
					c0.302-0.122,0.627-0.183,0.973-0.183c0.582,0,0.967,0.13,1.153,0.392c0.187,0.262,0.28,0.592,0.28,0.991
					c0,0.406-0.008,0.738-0.023,0.995c-0.014,0.256-0.021,0.425-0.021,0.505c-0.284-0.234-0.557-0.418-0.819-0.554
					c-0.259-0.134-0.577-0.202-0.95-0.202c-0.631,0-1.143,0.263-1.534,0.789c-0.392,0.527-0.587,1.276-0.587,2.248
					c0,1.7,0.32,2.72,0.962,3.063c0.642,0.342,1.221,0.512,1.736,0.512c0.514,0,0.99-0.196,1.429-0.59
					c0.157,0.395,0.305,0.59,0.444,0.59c0.041,0,0.079-0.008,0.111-0.026l0.569-0.389
					C188.718,158.473,188.734,158.439,188.734,158.399z M186.107,157.99c-0.523,0-0.913-0.213-1.166-0.637
					c-0.252-0.425-0.379-1.006-0.379-1.744c0-0.738,0.082-1.318,0.248-1.744c0.166-0.424,0.473-0.637,0.92-0.637
					c0.448,0,0.813,0.101,1.094,0.302c0.284,0.201,0.463,0.33,0.545,0.383v3.709c-0.121,0.053-0.295,0.129-0.517,0.224
					C186.628,157.941,186.378,157.99,186.107,157.99z"/>
			</g>
		</g>
	</g>
</g>
</svg>